<svg width="24" height="24" viewBox="0 0 24 24" fill="none" xmlns="http://www.w3.org/2000/svg">
<path fill-rule="evenodd" clip-rule="evenodd" d="M12 18C18 18 21 12 21 12C21 12 18 6 12 6C6 6 3 12 3 12C3 12 6 18 12 18ZM12 16C14.2091 16 16 14.2091 16 12C16 9.79086 14.2091 8 12 8C9.79086 8 8 9.79086 8 12C8 14.2091 9.79086 16 12 16Z" fill="white"/>
<circle cx="2" cy="2" r="2" transform="matrix(1 0 0 -1 10 14)" fill="white"/>
<path fill-rule="evenodd" clip-rule="evenodd" d="M12.5001 3V6H11.5001V3H12.5001ZM7.4331 4.08984L8.9331 6.68792L8.06708 7.18792L6.56708 4.58984L7.4331 4.08984ZM6.18792 9.06708L3.58984 7.56708L3.08984 8.43311L5.68792 9.93311L6.18792 9.06708ZM17.4331 4.58984L15.9331 7.18792L15.0671 6.68792L16.5671 4.08984L17.4331 4.58984ZM18.3123 9.93292L20.9103 8.43292L20.4103 7.56689L17.8123 9.06689L18.3123 9.93292Z" fill="white"/>
</svg>
