<svg width="25" height="32" viewBox="0 0 25 32" fill="none" xmlns="http://www.w3.org/2000/svg">
<rect x="1.5" y="1" width="22" height="30" rx="7" fill="#243856"/>
<rect x="1.5" y="1" width="22" height="30" rx="7" stroke="white" stroke-width="2"/>
<path d="M4.14645 15.6464C3.95118 15.8417 3.95118 16.1583 4.14645 16.3536L7.32843 19.5355C7.52369 19.7308 7.84027 19.7308 8.03553 19.5355C8.2308 19.3403 8.2308 19.0237 8.03553 18.8284L5.20711 16L8.03553 13.1716C8.2308 12.9763 8.2308 12.6597 8.03553 12.4645C7.84027 12.2692 7.52369 12.2692 7.32843 12.4645L4.14645 15.6464ZM20.8536 16.3536C21.0488 16.1583 21.0488 15.8417 20.8536 15.6464L17.6716 12.4645C17.4763 12.2692 17.1597 12.2692 16.9645 12.4645C16.7692 12.6597 16.7692 12.9763 16.9645 13.1716L19.7929 16L16.9645 18.8284C16.7692 19.0237 16.7692 19.3403 16.9645 19.5355C17.1597 19.7308 17.4763 19.7308 17.6716 19.5355L20.8536 16.3536ZM4.5 16.5H20.5V15.5H4.5V16.5Z" fill="white"/>
<mask id="path-3-inside-1_1019_60644" fill="white">
<path d="M9.5 6H15.5V26H9.5V6Z"/>
</mask>
<path d="M9.5 6H15.5V26H9.5V6Z" fill="#243856"/>
<path d="M13.5 6V26H17.5V6H13.5ZM11.5 26V6H7.5V26H11.5Z" fill="white" mask="url(#path-3-inside-1_1019_60644)"/>
</svg>
