<svg width="24" height="25" viewBox="0 0 24 25" fill="none" xmlns="http://www.w3.org/2000/svg">
<g id="icon">
<path id="&#226;&#158;&#189;" d="M19.1319 8.08401C19.6919 8.08401 19.9639 8.40401 19.9639 8.96402C19.9639 9.28402 19.8519 9.68402 19.6439 10.164L18.5879 12.5C19.0519 13.524 19.3719 14.276 19.6119 14.788C19.8519 15.3 19.9639 15.7 19.9639 16.036C19.9639 16.596 19.6919 16.916 19.1319 16.916L14.4119 16.916C13.8999 16.916 13.5959 16.772 13.3079 16.356L12.2519 14.884C11.4519 13.764 11.4679 13.652 11.0679 13.652L10.5559 13.652C9.99587 13.652 9.70787 13.86 9.70787 14.26C9.70787 14.772 9.91587 15.284 9.91587 15.796C9.91587 16.5 9.56387 16.916 8.89187 16.916C8.60387 16.916 8.36387 16.772 8.10787 16.5L5.22787 13.396C4.81187 12.948 4.66787 12.772 4.66787 12.5C4.66787 12.244 4.82787 12.052 5.22787 11.62L8.09187 8.51601C8.33187 8.24401 8.58787 8.08401 8.89187 8.08401C9.56387 8.08401 9.91587 8.48401 9.91587 9.20401C9.91587 9.62001 9.70787 10.42 9.70787 10.74C9.70787 11.14 9.99587 11.348 10.5559 11.348L11.0679 11.348C11.4519 11.348 11.4839 11.204 11.8679 10.676L12.9719 9.12401C13.4999 8.37201 13.7079 8.08401 14.4119 8.08401L19.1319 8.08401Z" fill="white"/>
</g>
</svg>
