<svg width="24" height="24" viewBox="0 0 24 24" fill="none" xmlns="http://www.w3.org/2000/svg">
<path fill-rule="evenodd" clip-rule="evenodd" d="M6.74963 7.81484L6.74963 8.99984C6.74963 9.19875 6.67062 9.38952 6.52996 9.53017C6.38931 9.67082 6.19855 9.74984 5.99963 9.74984C5.80072 9.74984 5.60996 9.67082 5.4693 9.53017C5.32865 9.38952 5.24963 9.19875 5.24963 8.99984L5.24963 5.99984C5.24963 5.80093 5.32865 5.61016 5.4693 5.46951C5.60996 5.32886 5.80072 5.24984 5.99963 5.24984L8.99963 5.24984C9.19855 5.24984 9.38931 5.32886 9.52996 5.46951C9.67062 5.61016 9.74963 5.80093 9.74963 5.99984C9.74963 6.19875 9.67062 6.38952 9.52996 6.53017C9.38931 6.67082 9.19855 6.74984 8.99963 6.74984L7.81463 6.74984L12.5246 11.4673C12.5949 11.5371 12.6507 11.62 12.6888 11.7114C12.7269 11.8028 12.7465 11.9008 12.7465 11.9998C12.7465 12.0988 12.7269 12.1969 12.6888 12.2883C12.6507 12.3797 12.5949 12.4626 12.5246 12.5323C12.4549 12.6026 12.372 12.6584 12.2806 12.6965C12.1892 12.7346 12.0911 12.7542 11.9921 12.7542C11.8931 12.7542 11.7951 12.7346 11.7037 12.6965C11.6123 12.6584 11.5294 12.6026 11.4596 12.5323L6.74963 7.81484ZM11.4697 6.53033C11.329 6.38968 11.25 6.19891 11.25 6C11.25 5.80109 11.329 5.61032 11.4697 5.46967C11.6103 5.32902 11.8011 5.25 12 5.25L16.5 5.25C17.0967 5.25 17.669 5.48705 18.091 5.90901C18.5129 6.33097 18.75 6.90326 18.75 7.5L18.75 16.5C18.75 17.0967 18.5129 17.669 18.091 18.091C17.669 18.5129 17.0967 18.75 16.5 18.75L7.5 18.75C6.90326 18.75 6.33097 18.5129 5.90901 18.091C5.48705 17.669 5.25 17.0967 5.25 16.5L5.25 12C5.25 11.8011 5.32902 11.6103 5.46967 11.4697C5.61032 11.329 5.80109 11.25 6 11.25C6.19891 11.25 6.38968 11.329 6.53033 11.4697C6.67098 11.6103 6.75 11.8011 6.75 12L6.75 16.5C6.75 16.6989 6.82902 16.8897 6.96967 17.0303C7.11032 17.171 7.30109 17.25 7.5 17.25L16.5 17.25C16.6989 17.25 16.8897 17.171 17.0303 17.0303C17.171 16.8897 17.25 16.6989 17.25 16.5L17.25 7.5C17.25 7.30109 17.171 7.11032 17.0303 6.96967C16.8897 6.82902 16.6989 6.75 16.5 6.75L12 6.75C11.8011 6.75 11.6103 6.67098 11.4697 6.53033Z" fill="white"/>
</svg>
