<svg width="24" height="32" viewBox="0 0 24 32" fill="none" xmlns="http://www.w3.org/2000/svg">
<rect x="0.5" y="0.5" width="23" height="31" rx="7.5" fill="white"/>
<rect x="0.5" y="0.5" width="23" height="31" rx="7.5" stroke="#243856"/>
<rect x="0.5" y="0.5" width="23" height="31" rx="7.5" stroke="black" stroke-opacity="0.2"/>
<path d="M3.64645 15.6464C3.45118 15.8417 3.45118 16.1583 3.64645 16.3536L6.82843 19.5355C7.02369 19.7308 7.34027 19.7308 7.53553 19.5355C7.7308 19.3403 7.7308 19.0237 7.53553 18.8284L4.70711 16L7.53553 13.1716C7.7308 12.9763 7.7308 12.6597 7.53553 12.4645C7.34027 12.2692 7.02369 12.2692 6.82843 12.4645L3.64645 15.6464ZM20.3536 16.3536C20.5488 16.1583 20.5488 15.8417 20.3536 15.6464L17.1716 12.4645C16.9763 12.2692 16.6597 12.2692 16.4645 12.4645C16.2692 12.6597 16.2692 12.9763 16.4645 13.1716L19.2929 16L16.4645 18.8284C16.2692 19.0237 16.2692 19.3403 16.4645 19.5355C16.6597 19.7308 16.9763 19.7308 17.1716 19.5355L20.3536 16.3536ZM4 16.5H20V15.5H4V16.5Z" fill="#243856"/>
<path d="M3.64645 15.6464C3.45118 15.8417 3.45118 16.1583 3.64645 16.3536L6.82843 19.5355C7.02369 19.7308 7.34027 19.7308 7.53553 19.5355C7.7308 19.3403 7.7308 19.0237 7.53553 18.8284L4.70711 16L7.53553 13.1716C7.7308 12.9763 7.7308 12.6597 7.53553 12.4645C7.34027 12.2692 7.02369 12.2692 6.82843 12.4645L3.64645 15.6464ZM20.3536 16.3536C20.5488 16.1583 20.5488 15.8417 20.3536 15.6464L17.1716 12.4645C16.9763 12.2692 16.6597 12.2692 16.4645 12.4645C16.2692 12.6597 16.2692 12.9763 16.4645 13.1716L19.2929 16L16.4645 18.8284C16.2692 19.0237 16.2692 19.3403 16.4645 19.5355C16.6597 19.7308 16.9763 19.7308 17.1716 19.5355L20.3536 16.3536ZM4 16.5H20V15.5H4V16.5Z" fill="black" fill-opacity="0.2"/>
<mask id="path-3-inside-1_235_24819" fill="white">
<path d="M10 6H14V26H10V6Z"/>
</mask>
<path d="M10 6H14V26H10V6Z" fill="white"/>
<path d="M13 6V26H15V6H13ZM11 26V6H9V26H11Z" fill="#243856" mask="url(#path-3-inside-1_235_24819)"/>
<path d="M13 6V26H15V6H13ZM11 26V6H9V26H11Z" fill="black" fill-opacity="0.2" mask="url(#path-3-inside-1_235_24819)"/>
</svg>
