<svg xmlns="http://www.w3.org/2000/svg" width="24" height="24" viewBox="0 0 24 24" fill="none">
  <circle cx="12" cy="12" r="9.02539" stroke="#243856" stroke-width="3"/>
  <circle cx="12" cy="12" r="9.02539" stroke="black" stroke-opacity="0.2" stroke-width="3"/>
  <circle cx="12" cy="12" r="8" stroke="white"/>
  <path d="M16.0577 10.762L11.3752 7.5805C10.3793 6.90385 9.03225 7.61719 9.03224 8.82121L9.03224 15.1745C9.03224 16.3776 10.3774 17.0911 11.3735 16.4164L16.056 13.2446C16.9336 12.6501 16.9345 11.3577 16.0577 10.762Z" fill="white"/>
  <path d="M16.0577 10.762L11.3752 7.5805C10.3793 6.90385 9.03225 7.61719 9.03224 8.82121L9.03224 15.1745C9.03224 16.3776 10.3774 17.0911 11.3735 16.4164L16.056 13.2446C16.9336 12.6501 16.9345 11.3577 16.0577 10.762Z" stroke="#243856" stroke-linecap="square"/>
  <path d="M16.0577 10.762L11.3752 7.5805C10.3793 6.90385 9.03225 7.61719 9.03224 8.82121L9.03224 15.1745C9.03224 16.3776 10.3774 17.0911 11.3735 16.4164L16.056 13.2446C16.9336 12.6501 16.9345 11.3577 16.0577 10.762Z" stroke="black" stroke-opacity="0.2" stroke-linecap="square"/>
</svg>

