<svg width="24" height="24" viewBox="0 0 24 24" fill="none" xmlns="http://www.w3.org/2000/svg">
<mask id="path-1-inside-1_100_12219" fill="white">
<path d="M21 12C21 12 18 18 12 18C6 18 3 12 3 12C3 12 6 6 12 6C18 6 21 12 21 12Z"/>
</mask>
<path d="M21 12L22.7889 12.8944L23.2361 12L22.7889 11.1056L21 12ZM3 12L1.21115 11.1056L0.763932 12L1.21115 12.8944L3 12ZM21 12C19.2111 11.1056 19.2115 11.1049 19.2118 11.1042C19.2119 11.1041 19.2122 11.1034 19.2124 11.103C19.2128 11.1023 19.2131 11.1016 19.2134 11.101C19.214 11.0999 19.2144 11.0991 19.2146 11.0986C19.2151 11.0977 19.2149 11.0981 19.214 11.0999C19.2121 11.1035 19.2075 11.1124 19.2001 11.1262C19.1854 11.1539 19.1596 11.2013 19.1229 11.2655C19.0493 11.3943 18.9327 11.5892 18.7734 11.8281C18.4526 12.3093 17.9714 12.9502 17.3358 13.5858C16.0538 14.8678 14.2825 16 12 16V20C15.7175 20 18.4462 18.1322 20.1642 16.4142C21.0286 15.5498 21.6724 14.6907 22.1016 14.0469C22.3173 13.7233 22.4819 13.4494 22.5959 13.2501C22.6529 13.1503 22.6974 13.0688 22.7295 13.0086C22.7456 12.9784 22.7586 12.9536 22.7685 12.9345C22.7734 12.9249 22.7776 12.9168 22.781 12.9101C22.7827 12.9067 22.7842 12.9038 22.7855 12.9011C22.7861 12.8998 22.7868 12.8986 22.7873 12.8975C22.7876 12.8969 22.788 12.8962 22.7881 12.8959C22.7885 12.8951 22.7889 12.8944 21 12ZM12 16C9.71751 16 7.94622 14.8678 6.66421 13.5858C6.02863 12.9502 5.54739 12.3093 5.2266 11.8281C5.06733 11.5892 4.9507 11.3943 4.87711 11.2655C4.84039 11.2013 4.81463 11.1539 4.79986 11.1262C4.79248 11.1124 4.78787 11.1035 4.78603 11.0999C4.78511 11.0981 4.78489 11.0977 4.78535 11.0986C4.78559 11.0991 4.786 11.0999 4.78658 11.101C4.78687 11.1016 4.78721 11.1023 4.78759 11.103C4.78778 11.1034 4.78809 11.1041 4.78819 11.1042C4.78852 11.1049 4.78885 11.1056 3 12C1.21115 12.8944 1.21151 12.8951 1.21188 12.8959C1.21202 12.8962 1.21241 12.8969 1.21269 12.8975C1.21325 12.8986 1.21386 12.8998 1.21452 12.9011C1.21583 12.9038 1.21734 12.9067 1.21904 12.9101C1.22244 12.9168 1.22661 12.9249 1.23155 12.9345C1.24143 12.9536 1.25439 12.9784 1.27045 13.0086C1.30255 13.0688 1.34711 13.1503 1.40414 13.2501C1.51805 13.4494 1.68267 13.7233 1.8984 14.0469C2.32761 14.6907 2.97137 15.5498 3.83579 16.4142C5.55378 18.1322 8.28249 20 12 20V16ZM3 12C4.78885 12.8944 4.78852 12.8951 4.78819 12.8958C4.78809 12.8959 4.78778 12.8966 4.78759 12.897C4.78721 12.8977 4.78687 12.8984 4.78658 12.899C4.786 12.9001 4.78559 12.9009 4.78535 12.9014C4.78489 12.9023 4.78511 12.9019 4.78603 12.9001C4.78787 12.8965 4.79248 12.8876 4.79986 12.8738C4.81463 12.8461 4.84039 12.7987 4.87711 12.7345C4.9507 12.6057 5.06733 12.4108 5.2266 12.1719C5.54739 11.6907 6.02863 11.0498 6.66421 10.4142C7.94622 9.13221 9.71751 8 12 8V4C8.28249 4 5.55378 5.86779 3.83579 7.58579C2.97137 8.45021 2.32761 9.30929 1.8984 9.9531C1.68267 10.2767 1.51805 10.5506 1.40414 10.7499C1.34711 10.8497 1.30255 10.9312 1.27045 10.9914C1.25439 11.0216 1.24143 11.0464 1.23155 11.0655C1.22661 11.0751 1.22244 11.0832 1.21904 11.0899C1.21734 11.0933 1.21583 11.0962 1.21452 11.0989C1.21386 11.1002 1.21325 11.1014 1.21269 11.1025C1.21241 11.1031 1.21202 11.1038 1.21188 11.1041C1.21151 11.1049 1.21115 11.1056 3 12ZM12 8C14.2825 8 16.0538 9.13221 17.3358 10.4142C17.9714 11.0498 18.4526 11.6907 18.7734 12.1719C18.9327 12.4108 19.0493 12.6057 19.1229 12.7345C19.1596 12.7987 19.1854 12.8461 19.2001 12.8738C19.2075 12.8876 19.2121 12.8965 19.214 12.9001C19.2149 12.9019 19.2151 12.9023 19.2146 12.9014C19.2144 12.9009 19.214 12.9001 19.2134 12.899C19.2131 12.8984 19.2128 12.8977 19.2124 12.897C19.2122 12.8966 19.2119 12.8959 19.2118 12.8958C19.2115 12.8951 19.2111 12.8944 21 12C22.7889 11.1056 22.7885 11.1049 22.7881 11.1041C22.788 11.1038 22.7876 11.1031 22.7873 11.1025C22.7868 11.1014 22.7861 11.1002 22.7855 11.0989C22.7842 11.0962 22.7827 11.0933 22.781 11.0899C22.7776 11.0832 22.7734 11.0751 22.7685 11.0655C22.7586 11.0464 22.7456 11.0216 22.7295 10.9914C22.6974 10.9312 22.6529 10.8497 22.5959 10.7499C22.4819 10.5506 22.3173 10.2767 22.1016 9.9531C21.6724 9.30929 21.0286 8.45021 20.1642 7.58579C18.4462 5.86779 15.7175 4 12 4V8Z" fill="white" mask="url(#path-1-inside-1_100_12219)"/>
<circle cx="12" cy="12" r="2" fill="white"/>
</svg>
