<svg width="32" height="32" viewBox="0 0 32 32" fill="none" xmlns="http://www.w3.org/2000/svg">
<g clip-path="url(#clip0_56_40766)">
<rect x="1" y="1" width="30" height="30" rx="15" fill="#243856"/>
<path d="M24.2795 17.4432C24.0275 17.3647 23.7547 17.389 23.5206 17.5107C23.2864 17.6325 23.1099 17.8419 23.0295 18.0932C22.5571 19.5377 21.6361 20.7938 20.4005 21.6786C19.1649 22.5635 17.6792 23.0311 16.1595 23.0132C14.2798 23.0346 12.4684 22.3097 11.1225 20.9975C9.7765 19.6853 9.00585 17.8928 8.97949 16.0132C9.00585 14.1337 9.7765 12.3412 11.1225 11.029C12.4684 9.71678 14.2798 8.99188 16.1595 9.01324C17.8571 9.00914 19.5024 9.60005 20.8095 10.6832L18.6395 10.3232C18.5094 10.3018 18.3764 10.3064 18.2481 10.3365C18.1198 10.3667 17.9988 10.422 17.8919 10.4991C17.785 10.5762 17.6945 10.6737 17.6254 10.786C17.5563 10.8983 17.5101 11.0231 17.4895 11.1532C17.4681 11.2833 17.4726 11.4163 17.5028 11.5446C17.533 11.6729 17.5882 11.794 17.6654 11.9008C17.7425 12.0077 17.84 12.0983 17.9523 12.1673C18.0645 12.2364 18.1893 12.2826 18.3195 12.3032L22.5595 13.0032H22.7295C22.8454 13.0031 22.9605 12.9828 23.0695 12.9432C23.1061 12.9293 23.14 12.909 23.1695 12.8832C23.2412 12.8566 23.3086 12.8195 23.3695 12.7732L23.4595 12.6632C23.4595 12.6132 23.5495 12.5732 23.5895 12.5132C23.6295 12.4532 23.5895 12.4132 23.6395 12.3732C23.6671 12.315 23.6905 12.2548 23.7095 12.1932L24.4595 8.19324C24.4844 8.06192 24.4833 7.92697 24.4561 7.7961C24.4289 7.66522 24.3762 7.54099 24.3009 7.43049C24.2257 7.31998 24.1295 7.22538 24.0177 7.15207C23.9059 7.07877 23.7808 7.02819 23.6495 7.00324C23.5182 6.97829 23.3832 6.97945 23.2523 7.00665C23.1215 7.03385 22.9972 7.08657 22.8867 7.16178C22.6636 7.31369 22.5099 7.54803 22.4595 7.81324L22.1895 9.26324C20.5155 7.81248 18.3747 7.01367 16.1595 7.01324C13.7494 6.99191 11.4293 7.92754 9.7083 9.61482C7.98727 11.3021 7.00588 13.6032 6.97949 16.0132C7.00588 18.4233 7.98727 20.7244 9.7083 22.4117C11.4293 24.0989 13.7494 25.0346 16.1595 25.0132C18.1126 25.0433 20.0238 24.4454 21.6116 23.3076C23.1994 22.1699 24.38 20.5523 24.9795 18.6932C25.0174 18.5652 25.0293 18.4309 25.0145 18.2982C24.9997 18.1655 24.9584 18.0371 24.8932 17.9206C24.8279 17.8041 24.74 17.7018 24.6346 17.6198C24.5292 17.5378 24.4085 17.4778 24.2795 17.4432Z" fill="white"/>
<rect x="1" y="1" width="30" height="30" rx="15" stroke="white" stroke-width="2"/>
</g>
<defs>
<clipPath id="clip0_56_40766">
<rect width="32" height="32" rx="16" fill="white"/>
</clipPath>
</defs>
</svg>
