<svg width="37" height="36" viewBox="0 0 37 36" fill="none" xmlns="http://www.w3.org/2000/svg">
<rect x="1.5" y="1" width="34" height="34" rx="17" fill="white"/>
<rect x="1.5" y="1" width="34" height="34" rx="17" stroke="#243856" stroke-width="2"/>
<path d="M26.7795 19.4434C26.5275 19.3648 26.2547 19.3891 26.0206 19.5109C25.7864 19.6326 25.6099 19.842 25.5295 20.0934C25.0571 21.5378 24.1361 22.7939 22.9005 23.6788C21.6649 24.5636 20.1792 25.0312 18.6595 25.0134C16.7798 25.0347 14.9684 24.3098 13.6225 22.9976C12.2765 21.6854 11.5058 19.893 11.4795 18.0134C11.5058 16.1338 12.2765 14.3413 13.6225 13.0291C14.9684 11.7169 16.7798 10.992 18.6595 11.0134C20.3571 11.0093 22.0024 11.6002 23.3095 12.6834L21.1395 12.3234C21.0094 12.302 20.8764 12.3065 20.7481 12.3367C20.6198 12.3668 20.4988 12.4221 20.3919 12.4992C20.285 12.5764 20.1945 12.6739 20.1254 12.7861C20.0563 12.8984 20.0101 13.0232 19.9895 13.1534C19.9681 13.2834 19.9726 13.4164 20.0028 13.5447C20.033 13.673 20.0882 13.7941 20.1654 13.901C20.2425 14.0078 20.34 14.0984 20.4523 14.1675C20.5645 14.2365 20.6893 14.2827 20.8195 14.3034L25.0595 15.0034H25.2295C25.3454 15.0032 25.4605 14.9829 25.5695 14.9434C25.6061 14.9295 25.64 14.9091 25.6695 14.8834C25.7412 14.8567 25.8086 14.8196 25.8695 14.7734L25.9595 14.6634C25.9595 14.6134 26.0495 14.5734 26.0895 14.5134C26.1295 14.4534 26.0895 14.4134 26.1395 14.3734C26.1671 14.3151 26.1905 14.255 26.2095 14.1934L26.9595 10.1934C26.9844 10.062 26.9833 9.92709 26.9561 9.79622C26.9289 9.66534 26.8762 9.54111 26.8009 9.43061C26.7257 9.32011 26.6295 9.2255 26.5177 9.15219C26.4059 9.07889 26.2808 9.02831 26.1495 9.00336C26.0182 8.97841 25.8832 8.97957 25.7523 9.00677C25.6215 9.03398 25.4972 9.08669 25.3867 9.16191C25.1636 9.31381 25.0099 9.54815 24.9595 9.81336L24.6895 11.2634C23.0155 9.8126 20.8747 9.01379 18.6595 9.01336C16.2494 8.99203 13.9293 9.92766 12.2083 11.6149C10.4873 13.3022 9.50588 15.6033 9.47949 18.0134C9.50588 20.4234 10.4873 22.7245 12.2083 24.4118C13.9293 26.0991 16.2494 27.0347 18.6595 27.0134C20.6126 27.0434 22.5238 26.4455 24.1116 25.3077C25.6994 24.17 26.88 22.5525 27.4795 20.6934C27.5174 20.5653 27.5293 20.431 27.5145 20.2983C27.4997 20.1656 27.4584 20.0372 27.3932 19.9207C27.3279 19.8042 27.24 19.7019 27.1346 19.6199C27.0292 19.538 26.9085 19.4779 26.7795 19.4434Z" fill="#243856"/>
</svg>
