<svg width="24" height="24" viewBox="0 0 24 24" fill="none" xmlns="http://www.w3.org/2000/svg">
<mask id="path-1-inside-1_1112_108612" fill="white">
<path d="M21 12C21 12 18 18 12 18C6 18 3 12 3 12C3 12 6 6 12 6C18 6 21 12 21 12Z"/>
</mask>
<path d="M21 12L21.8944 12.4472L22.118 12L21.8944 11.5528L21 12ZM3 12L2.10557 11.5528L1.88197 12L2.10557 12.4472L3 12ZM21 12C20.1056 11.5528 20.1057 11.5525 20.1059 11.5522C20.1059 11.5521 20.1061 11.5518 20.1061 11.5517C20.1063 11.5514 20.1064 11.5512 20.1064 11.5511C20.1065 11.5509 20.1065 11.551 20.1062 11.5515C20.1057 11.5525 20.1045 11.5548 20.1026 11.5586C20.0987 11.566 20.092 11.5789 20.0825 11.5968C20.0634 11.6326 20.0329 11.6885 19.9911 11.7617C19.9075 11.9081 19.7788 12.1227 19.6054 12.3828C19.2576 12.9046 18.7357 13.6001 18.0429 14.2929C16.6519 15.6839 14.6412 17 12 17V19C15.3588 19 17.8481 17.3161 19.4571 15.7071C20.2643 14.8999 20.8674 14.0954 21.2696 13.4922C21.4712 13.1898 21.6238 12.9357 21.7276 12.754C21.7796 12.663 21.8194 12.59 21.8472 12.538C21.8611 12.5119 21.872 12.4911 21.8798 12.4759C21.8838 12.4682 21.8869 12.462 21.8894 12.4572C21.8906 12.4548 21.8916 12.4528 21.8925 12.4511C21.8929 12.4503 21.8933 12.4495 21.8936 12.4489C21.8938 12.4486 21.894 12.4481 21.894 12.448C21.8942 12.4476 21.8944 12.4472 21 12ZM12 17C9.35876 17 7.34811 15.6839 5.95711 14.2929C5.26432 13.6001 4.74245 12.9046 4.39455 12.3828C4.22116 12.1227 4.09254 11.9081 4.00887 11.7617C3.96707 11.6885 3.93661 11.6326 3.91751 11.5968C3.90796 11.5789 3.90126 11.566 3.89741 11.5586C3.89548 11.5548 3.89427 11.5525 3.89378 11.5515C3.89353 11.551 3.89346 11.5509 3.89357 11.5511C3.89362 11.5512 3.89372 11.5514 3.89386 11.5517C3.89393 11.5518 3.89408 11.5521 3.89411 11.5522C3.89426 11.5525 3.89443 11.5528 3 12C2.10557 12.4472 2.10576 12.4476 2.10596 12.448C2.10604 12.4481 2.10625 12.4486 2.10641 12.4489C2.10674 12.4495 2.10711 12.4503 2.10753 12.4511C2.10837 12.4528 2.1094 12.4548 2.11062 12.4572C2.11305 12.462 2.11623 12.4682 2.12017 12.4759C2.12804 12.4911 2.13891 12.5119 2.1528 12.538C2.18057 12.59 2.22043 12.663 2.27238 12.754C2.37621 12.9357 2.52884 13.1898 2.73045 13.4922C3.13255 14.0954 3.73568 14.8999 4.54289 15.7071C6.15189 17.3161 8.64124 19 12 19V17ZM3 12C3.89443 12.4472 3.89426 12.4475 3.89411 12.4478C3.89408 12.4479 3.89393 12.4482 3.89386 12.4483C3.89372 12.4486 3.89362 12.4488 3.89357 12.4489C3.89346 12.4491 3.89353 12.449 3.89378 12.4485C3.89427 12.4475 3.89548 12.4452 3.89741 12.4414C3.90126 12.434 3.90796 12.4211 3.91751 12.4032C3.93661 12.3674 3.96707 12.3115 4.00887 12.2383C4.09254 12.0919 4.22116 11.8773 4.39455 11.6172C4.74245 11.0954 5.26432 10.3999 5.95711 9.70711C7.34811 8.3161 9.35876 7 12 7V5C8.64124 5 6.15189 6.6839 4.54289 8.29289C3.73568 9.1001 3.13255 9.90465 2.73045 10.5078C2.52884 10.8102 2.37621 11.0643 2.27238 11.246C2.22043 11.337 2.18057 11.41 2.1528 11.462C2.13891 11.4881 2.12804 11.5089 2.12017 11.5241C2.11623 11.5318 2.11305 11.538 2.11062 11.5428C2.1094 11.5452 2.10837 11.5472 2.10753 11.5489C2.10711 11.5497 2.10674 11.5505 2.10641 11.5511C2.10625 11.5514 2.10604 11.5519 2.10596 11.552C2.10576 11.5524 2.10557 11.5528 3 12ZM12 7C14.6412 7 16.6519 8.3161 18.0429 9.70711C18.7357 10.3999 19.2576 11.0954 19.6054 11.6172C19.7788 11.8773 19.9075 12.0919 19.9911 12.2383C20.0329 12.3115 20.0634 12.3674 20.0825 12.4032C20.092 12.4211 20.0987 12.434 20.1026 12.4414C20.1045 12.4452 20.1057 12.4475 20.1062 12.4485C20.1065 12.449 20.1065 12.4491 20.1064 12.4489C20.1064 12.4488 20.1063 12.4486 20.1061 12.4483C20.1061 12.4482 20.1059 12.4479 20.1059 12.4478C20.1057 12.4475 20.1056 12.4472 21 12C21.8944 11.5528 21.8942 11.5524 21.894 11.552C21.894 11.5519 21.8938 11.5514 21.8936 11.5511C21.8933 11.5505 21.8929 11.5497 21.8925 11.5489C21.8916 11.5472 21.8906 11.5452 21.8894 11.5428C21.8869 11.538 21.8838 11.5318 21.8798 11.5241C21.872 11.5089 21.8611 11.4881 21.8472 11.462C21.8194 11.41 21.7796 11.337 21.7276 11.246C21.6238 11.0643 21.4712 10.8102 21.2696 10.5078C20.8674 9.90465 20.2643 9.1001 19.4571 8.29289C17.8481 6.6839 15.3588 5 12 5V7Z" fill="white" mask="url(#path-1-inside-1_1112_108612)"/>
<circle cx="12" cy="12" r="2.5" stroke="white"/>
</svg>
