<svg width="18" height="18" viewBox="0 0 18 18" fill="none" xmlns="http://www.w3.org/2000/svg">
<path id="Union" fill-rule="evenodd" clip-rule="evenodd" d="M8.29289 1.70711C8.10536 1.51957 8 1.26522 8 1C8 0.734783 8.10536 0.480428 8.29289 0.292892C8.48043 0.105356 8.73478 -3.81809e-07 9 -3.93402e-07L15 -6.55671e-07C15.7956 -6.9045e-07 16.5587 0.31607 17.1213 0.878679C17.6839 1.44129 18 2.20435 18 3L18 15C18 15.7956 17.6839 16.5587 17.1213 17.1213C16.5587 17.6839 15.7956 18 15 18L3 18C2.20435 18 1.44129 17.6839 0.87868 17.1213C0.316071 16.5587 -9.63552e-08 15.7956 -1.31134e-07 15L-3.93402e-07 9C-4.04995e-07 8.73478 0.105356 8.48043 0.292893 8.29289C0.480429 8.10536 0.734783 8 1 8C1.26522 8 1.51957 8.10536 1.70711 8.29289C1.89464 8.48043 2 8.73478 2 9L2 15C2 15.2652 2.10536 15.5196 2.29289 15.7071C2.48043 15.8946 2.73478 16 3 16L15 16C15.2652 16 15.5196 15.8946 15.7071 15.7071C15.8946 15.5196 16 15.2652 16 15L16 3C16 2.73478 15.8946 2.48043 15.7071 2.29289C15.5196 2.10536 15.2652 2 15 2L9 2C8.73478 2 8.48043 1.89464 8.29289 1.70711ZM2 3.42006L2 5.00006C2 5.26528 1.89464 5.51963 1.70711 5.70717C1.51957 5.8947 1.26522 6.00006 0.999999 6.00006C0.734783 6.00006 0.480429 5.8947 0.292893 5.70717C0.105356 5.51963 -5.56652e-07 5.26528 -5.68245e-07 5.00006L-7.43091e-07 1.00006C-7.54684e-07 0.734844 0.105356 0.48049 0.292892 0.292953C0.480429 0.105417 0.734783 6.1003e-05 0.999999 6.09914e-05L5 6.08166e-05C5.26522 6.0805e-05 5.51957 0.105417 5.70711 0.292953C5.89464 0.480489 6 0.734844 6 1.00006C6 1.26528 5.89464 1.51963 5.70711 1.70717C5.51957 1.8947 5.26522 2.00006 5 2.00006L3.42 2.00006L9.7 8.29006C9.79373 8.38302 9.86812 8.49362 9.91889 8.61548C9.96966 8.73734 9.9958 8.86805 9.9958 9.00006C9.9958 9.13207 9.96966 9.26278 9.91889 9.38464C9.86812 9.5065 9.79373 9.6171 9.7 9.71006C9.60704 9.80379 9.49644 9.87818 9.37458 9.92895C9.25272 9.97972 9.12201 10.0059 8.99 10.0059C8.85799 10.0059 8.72728 9.97972 8.60542 9.92895C8.48356 9.87818 8.37296 9.80379 8.28 9.71006L2 3.42006Z" fill="white"/>
</svg>
