<svg width="33" height="32" viewBox="0 0 33 32" fill="none" xmlns="http://www.w3.org/2000/svg">
<path d="M13.5 8.99952C13.2348 8.99952 12.9804 9.10488 12.7929 9.29241C12.6054 9.47995 12.5 9.7343 12.5 9.99952C12.5 10.2647 12.6054 10.5191 12.7929 10.7066C12.9804 10.8942 13.2348 10.9995 13.5 10.9995C13.7652 10.9995 14.0196 10.8942 14.2071 10.7066C14.3946 10.5191 14.5 10.2647 14.5 9.99952C14.5 9.7343 14.3946 9.47995 14.2071 9.29241C14.0196 9.10488 13.7652 8.99952 13.5 8.99952ZM10.67 8.99952C10.8766 8.41399 11.2597 7.90695 11.7666 7.54831C12.2735 7.18967 12.8791 6.99707 13.5 6.99707C14.1209 6.99707 14.7265 7.18967 15.2334 7.54831C15.7403 7.90695 16.1234 8.41399 16.33 8.99952H23.5C23.7652 8.99952 24.0196 9.10488 24.2071 9.29241C24.3946 9.47995 24.5 9.7343 24.5 9.99952C24.5 10.2647 24.3946 10.5191 24.2071 10.7066C24.0196 10.8942 23.7652 10.9995 23.5 10.9995H16.33C16.1234 11.5851 15.7403 12.0921 15.2334 12.4507C14.7265 12.8094 14.1209 13.002 13.5 13.002C12.8791 13.002 12.2735 12.8094 11.7666 12.4507C11.2597 12.0921 10.8766 11.5851 10.67 10.9995H9.5C9.23478 10.9995 8.98043 10.8942 8.79289 10.7066C8.60536 10.5191 8.5 10.2647 8.5 9.99952C8.5 9.7343 8.60536 9.47995 8.79289 9.29241C8.98043 9.10488 9.23478 8.99952 9.5 8.99952H10.67ZM19.5 14.9995C19.2348 14.9995 18.9804 15.1049 18.7929 15.2924C18.6054 15.4799 18.5 15.7343 18.5 15.9995C18.5 16.2647 18.6054 16.5191 18.7929 16.7066C18.9804 16.8942 19.2348 16.9995 19.5 16.9995C19.7652 16.9995 20.0196 16.8942 20.2071 16.7066C20.3946 16.5191 20.5 16.2647 20.5 15.9995C20.5 15.7343 20.3946 15.4799 20.2071 15.2924C20.0196 15.1049 19.7652 14.9995 19.5 14.9995ZM16.67 14.9995C16.8766 14.414 17.2597 13.907 17.7666 13.5483C18.2735 13.1897 18.8791 12.9971 19.5 12.9971C20.1209 12.9971 20.7265 13.1897 21.2334 13.5483C21.7403 13.907 22.1234 14.414 22.33 14.9995H23.5C23.7652 14.9995 24.0196 15.1049 24.2071 15.2924C24.3946 15.4799 24.5 15.7343 24.5 15.9995C24.5 16.2647 24.3946 16.5191 24.2071 16.7066C24.0196 16.8942 23.7652 16.9995 23.5 16.9995H22.33C22.1234 17.5851 21.7403 18.0921 21.2334 18.4507C20.7265 18.8094 20.1209 19.002 19.5 19.002C18.8791 19.002 18.2735 18.8094 17.7666 18.4507C17.2597 18.0921 16.8766 17.5851 16.67 16.9995H9.5C9.23478 16.9995 8.98043 16.8942 8.79289 16.7066C8.60536 16.5191 8.5 16.2647 8.5 15.9995C8.5 15.7343 8.60536 15.4799 8.79289 15.2924C8.98043 15.1049 9.23478 14.9995 9.5 14.9995H16.67ZM13.5 20.9995C13.2348 20.9995 12.9804 21.1049 12.7929 21.2924C12.6054 21.4799 12.5 21.7343 12.5 21.9995C12.5 22.2647 12.6054 22.5191 12.7929 22.7066C12.9804 22.8942 13.2348 22.9995 13.5 22.9995C13.7652 22.9995 14.0196 22.8942 14.2071 22.7066C14.3946 22.5191 14.5 22.2647 14.5 21.9995C14.5 21.7343 14.3946 21.4799 14.2071 21.2924C14.0196 21.1049 13.7652 20.9995 13.5 20.9995ZM10.67 20.9995C10.8766 20.414 11.2597 19.907 11.7666 19.5483C12.2735 19.1897 12.8791 18.9971 13.5 18.9971C14.1209 18.9971 14.7265 19.1897 15.2334 19.5483C15.7403 19.907 16.1234 20.414 16.33 20.9995H23.5C23.7652 20.9995 24.0196 21.1049 24.2071 21.2924C24.3946 21.4799 24.5 21.7343 24.5 21.9995C24.5 22.2647 24.3946 22.5191 24.2071 22.7066C24.0196 22.8942 23.7652 22.9995 23.5 22.9995H16.33C16.1234 23.5851 15.7403 24.0921 15.2334 24.4507C14.7265 24.8094 14.1209 25.002 13.5 25.002C12.8791 25.002 12.2735 24.8094 11.7666 24.4507C11.2597 24.0921 10.8766 23.5851 10.67 22.9995H9.5C9.23478 22.9995 8.98043 22.8942 8.79289 22.7066C8.60536 22.5191 8.5 22.2647 8.5 21.9995C8.5 21.7343 8.60536 21.4799 8.79289 21.2924C8.98043 21.1049 9.23478 20.9995 9.5 20.9995H10.67Z" fill="white"/>
</svg>
