<svg width="24" height="24" viewBox="0 0 24 24" fill="none" xmlns="http://www.w3.org/2000/svg">
<path fill-rule="evenodd" clip-rule="evenodd" d="M20.3956 11C19.2436 12.7068 16.4451 16 12 16C7.55489 16 4.75637 12.7068 3.60442 11C3.20147 11.5971 3 12 3 12C3 12 6 18 12 18C18 18 21 12 21 12C21 12 20.7985 11.5971 20.3956 11Z" fill="white"/>
<path fill-rule="evenodd" clip-rule="evenodd" d="M3.58984 16.4324L6.18792 14.9324L5.68792 14.0664L3.08984 15.5664L3.58984 16.4324ZM20.9104 15.5666L18.3123 14.0666L17.8123 14.9326L20.4104 16.4326L20.9104 15.5666ZM15.9331 16.8118L17.4331 19.4099L16.5671 19.9099L15.0671 17.3118L15.9331 16.8118ZM12.5001 17.9995V20.9995H11.5001V17.9995H12.5001ZM8.93312 17.3118L7.43312 19.9099L6.56709 19.4099L8.06709 16.8118L8.93312 17.3118Z" fill="white"/>
</svg>
