<svg width="33" height="32" viewBox="0 0 33 32" fill="none" xmlns="http://www.w3.org/2000/svg">
<path fill-rule="evenodd" clip-rule="evenodd" d="M13.5007 11.5809V10.0009C13.5007 9.7357 13.6061 9.48135 13.7936 9.29381C13.9812 9.10627 14.2355 9.00092 14.5007 9.00092C14.7659 9.00092 15.0203 9.10627 15.2078 9.29381C15.3954 9.48135 15.5007 9.7357 15.5007 10.0009L15.5007 14.0009C15.5007 14.2661 15.3954 14.5205 15.2078 14.708C15.0203 14.8956 14.7659 15.0009 14.5007 15.0009H10.5007C10.2355 15.0009 9.98116 14.8956 9.79363 14.708C9.60609 14.5205 9.50073 14.2661 9.50073 14.0009C9.50073 13.7357 9.60609 13.4813 9.79363 13.2938C9.98116 13.1063 10.2355 13.0009 10.5007 13.0009H12.0807L8.80073 9.71091C8.707 9.61795 8.63261 9.50735 8.58184 9.38549C8.53107 9.26363 8.50493 9.13293 8.50493 9.00091C8.50493 8.8689 8.53107 8.7382 8.58184 8.61634C8.63261 8.49448 8.707 8.38388 8.80073 8.29091C8.8937 8.19719 9.0043 8.12279 9.12616 8.07202C9.24802 8.02126 9.37872 7.99512 9.51073 7.99512C9.64274 7.99512 9.77345 8.02126 9.89531 8.07202C10.0172 8.12279 10.1278 8.19719 10.2207 8.29092L13.5007 11.5809ZM18.5049 19.4151V20.9951C18.5049 21.2603 18.3995 21.5147 18.212 21.7022C18.0245 21.8898 17.7701 21.9951 17.5049 21.9951C17.2397 21.9951 16.9853 21.8898 16.7978 21.7022C16.6102 21.5147 16.5049 21.2603 16.5049 20.9951V16.9951C16.5049 16.7299 16.6102 16.4755 16.7978 16.288C16.9853 16.1005 17.2397 15.9951 17.5049 15.9951H21.5049C21.7701 15.9951 22.0245 16.1005 22.212 16.288C22.3995 16.4755 22.5049 16.7299 22.5049 16.9951C22.5049 17.2603 22.3995 17.5147 22.212 17.7022C22.0245 17.8898 21.7701 17.9951 21.5049 17.9951H19.9249L23.2049 21.2851C23.2986 21.3781 23.373 21.4887 23.4238 21.6105C23.4745 21.7324 23.5007 21.8631 23.5007 21.9951C23.5007 22.1271 23.4745 22.2578 23.4238 22.3797C23.373 22.5016 23.2986 22.6122 23.2049 22.7051C23.1119 22.7988 23.0013 22.8732 22.8795 22.924C22.7576 22.9748 22.6269 23.0009 22.4949 23.0009C22.3629 23.0009 22.2322 22.9748 22.1103 22.924C21.9884 22.8732 21.8778 22.7988 21.7849 22.7051L18.5049 19.4151Z" fill="white"/>
</svg>
